<?xml version="1.0" encoding="UTF-8"?><svg id="Layer_9" xmlns="http://www.w3.org/2000/svg" viewBox="0 0 516.73 405.99"><path d="m393,5.72l-.57-3.14h-112.65v32.23c0,24.55-.04,49.12-.05,73.69,1.96-1.84,4.21-3.79,7.02-5.89,9.71-7.27,18.85-15.34,27.26-24.14,5.75-6.02,11.32-12.88,15.01-20.5,3.82-7.89,6.46-16.35,8.22-24.99.1-.51.15-.97.24-1.4.29-1.7.54-2.72.54-2.72,0,0,.44.91,1.05,2.59.15.42.33.89.48,1.4.15.51.28,1.07.43,1.68.15.6.29,1.25.45,1.93.13.68.21,1.41.32,2.17.09.76.21,1.56.26,2.38.04.82.07,1.68.1,2.56,0,.44.03.89.02,1.34-.02.45-.04.91-.07,1.37-.02.46-.05.93-.09,1.4-.04.47-.05.95-.12,1.43-.27,1.9-.52,3.89-1.04,5.84-.42,1.98-1.11,3.92-1.76,5.86-.79,1.89-1.54,3.8-2.52,5.56-.89,1.81-2,3.45-3.04,5.05-.55.78-1.13,1.52-1.69,2.24-.28.36-.56.71-.84,1.06-.28.34-.59.66-.89.98-.18.2-.36.39-.55.58-.15.36-.29.72-.44,1.08-.74,1.82-1.49,3.64-2.38,5.39.65-.93,1.29-1.86,1.91-2.79.35-.51.69-1.02,1.04-1.53.36-.5.69-1.01,1.02-1.52.66-1.02,1.32-2.03,1.99-3,.65-.99,1.24-1.99,1.88-2.94.31-.48.62-.95.93-1.42.3-.47.59-.94.87-1.41.59-.92,1.14-1.83,1.71-2.69.56-.86,1.05-1.73,1.57-2.54.51-.81,1-1.59,1.47-2.34.46-.74.87-1.46,1.29-2.12.42-.66.8-1.29,1.18-1.87.97-1.58,1.74-3.27,2.73-4.86-.38.62.09,3.19.09,3.99-.01,1.48-.08,2.96-.19,4.44-.23,2.95-.66,5.89-1.3,8.77-1.12,5.04-3.06,9.79-4.36,14.77-.42,1.51-.92,3.05-1.56,4.56-.15.37-.3.74-.47,1.11.68-1.31,1.34-2.62,2.02-3.88.48-.95.92-1.91,1.4-2.83.23-.46.47-.92.7-1.37.22-.46.43-.91.64-1.36.43-.89.83-1.77,1.26-2.61.42-.84.76-1.68,1.14-2.47.38-.8.74-1.56,1.09-2.28,1.05-2.31,2.61-3.83,2.86-6.59.05-.53.09-1.13.49-1.45.53-.42,1.35-.03,1.64.59,1.02,2.15.64,6.51.62,8.88-.02,3.09-.34,6.16-.87,9.2-1.04,6-2.89,11.86-4.94,17.55-.37,1.04-.79,2.1-1.21,3.2-.21.55-.42,1.11-.66,1.66-.24.55-.49,1.11-.74,1.67-.5,1.13-1.02,2.28-1.58,3.43-.57,1.15-1.18,2.3-1.8,3.46-.46.9-.97,1.78-1.5,2.66.4-.35.79-.7,1.16-1.04,1.06-.96,2.06-1.87,2.96-2.73,1.82-1.71,3.34-3.13,4.38-4.16,1.04-1.02,1.64-1.6,1.64-1.6l.03.03c.04-.06.08-.1.08-.1,0,0,0,.06-.02.16l.45.45s-.05.25-.16.7c-.11.45-.28,1.09-.55,1.88-.16.52-.37,1.09-.62,1.71-.14.53-.31,1.09-.49,1.7-.19.68-.43,1.39-.67,2.16-.26.75-.59,1.5-.9,2.3-.16.4-.33.81-.51,1.22-.18.41-.34.85-.56,1.26-.41.83-.86,1.68-1.32,2.56-.23.44-.46.89-.71,1.33-.27.43-.54.87-.81,1.31-.56.88-1.11,1.79-1.73,2.67-1.29,1.73-2.61,3.55-4.16,5.2-1.31,1.54-2.8,2.93-4.29,4.33-.22.42-.45.84-.7,1.25-.36.62-.75,1.24-1.16,1.84.98-.79,1.98-1.55,2.9-2.38.96-.8,1.84-1.66,2.7-2.47.42-.42.83-.84,1.24-1.24.41-.4.81-.8,1.17-1.2.37-.4.73-.79,1.08-1.17.35-.38.66-.77.97-1.13.31-.36.61-.71.89-1.04.27-.34.53-.66.78-.96.49-.6.92-1.13,1.24-1.59.67-.9,1.05-1.41,1.05-1.41l.62.43s.02.21.04.6c.01.38.02.94-.02,1.63-.24,4.11-1.76,7.74-3.95,11.11-1.67,2.57-3.48,5.2-4,8.27,0-.01,3.69-2.16,4.11-2.63,1.04-1.18,2.05-2.52,2.99-3.8.54-.76,1.01-1.43,1.39-1.98.4-.55.7-1.03.92-1.33.23-.31.35-.47.35-.47,0,0,.01.21.04.59.02.38.06.93.02,1.65-.01.73-.1,1.59-.23,2.58-.07.49-.18,1.01-.28,1.56-.11.55-.28,1.11-.43,1.71-.18.59-.37,1.2-.6,1.83-.23.62-.48,1.27-.78,1.91-.56,1.31-1.29,2.61-2.12,3.93-.84,1.31-1.82,2.58-2.9,3.81-1.1,1.21-2.3,2.36-3.58,3.41l-.96.73c-.28.22-.66.48-1.01.72-.71.51-1.41.9-2.11,1.32-.97.54-1.95,1.02-2.94,1.44.34-.09.67-.18,1.01-.25.25-.06.51-.12.77-.17.25-.06.5-.13.74-.19.49-.13.98-.24,1.46-.34.48-.12.94-.23,1.39-.34.45-.11.9-.2,1.33-.28.41-.09.8-.2,1.19-.27.39-.07.75-.16,1.11-.22.36-.07.68-.17.99-.23,1.21-.28,1.98-.34,1.98-.34,0,0-.19.77-.65,1.95-.12.3-.24.62-.41.96-.17.35-.39.7-.61,1.09-.22.39-.49.78-.77,1.22-.28.41-.6.81-.94,1.23-.34.41-.69.86-1.1,1.27-.4.41-.83.82-1.28,1.24-.45.43-.93.82-1.45,1.2-.51.38-1.04.78-1.6,1.14-1.13.68-2.33,1.39-3.62,1.9-1.27.58-2.63.98-3.99,1.37-1.38.29-2.77.59-4.16.67-1.13.12-2.27.1-3.37.05-.04.45-.11.94-.21,1.48,1.17-.05,2.32-.1,3.42-.19,1.24-.08,2.42-.2,3.53-.31.55-.07,1.09-.13,1.59-.19.51-.07.99-.14,1.46-.19.46-.07.89-.14,1.3-.19.4-.06.77-.12,1.11-.17.68-.09,1.24-.22,1.62-.27.39-.05.59-.08.59-.08,0,0-.12.17-.36.49-.25.31-.57.77-1.09,1.29-.25.27-.54.56-.86.86-.32.3-.68.6-1.07.94-.39.32-.83.63-1.29.98-.46.33-.97.64-1.5.98-1.08.62-2.28,1.27-3.6,1.8-1.32.56-2.75,1.01-4.25,1.4-1.37.35-2.8.6-4.26.78-.06.08-.13.15-.19.23.37,0,.74,0,1.11.01.29,0,.58.01.87.03.29,0,.57,0,.85,0,.56,0,1.12.01,1.66.04.54.02,1.05,0,1.56.01.51.02,1,.03,1.46.05.46.01.9,0,1.32.03.42.02.82.03,1.19.06.38.02.73.01,1.05.03,1.27.05,2.03.16,2.03.16,0,0-.53.56-1.52,1.38-.25.21-.52.43-.82.66-.31.23-.66.45-1.04.7-6.48,4.34-13.48,7.71-21.36,7.66-.52,0-1.24.16-1.22.71,0,.38.38.61.71.76,3.7,1.68,8.08,1.94,11.96,2.98,1.34.36,2.11.66,2.11.66,0,0-.74.37-2.04.86-.64.26-1.44.51-2.38.77-.47.14-.97.25-1.5.39-9.45,2.45-18.79,2.49-28.36,2.56,0,.58,0,1.16,0,1.74.06.03.13.05.19.08,1.5.72,3.01,1.64,4.49,2.44.99.54,1.55.93,1.55.93,0,0-.62.27-1.7.59-.53.17-1.19.33-1.95.47-.38.08-.79.14-1.22.21-.43.07-.87.1-1.34.16-.01,0-.02,0-.03,0-.02,9.39-.04,18.77-.06,28.16.1.03.22.06.31.09.89.26,1.42.51,1.42.51,0,0-.38.45-1.07,1.08-.19.18-.42.37-.67.56-.06,30.08-.11,60.17-.19,90.23-.14,28.09,1.14,57.32-35.65,66.45h143.45l.14-5.85h-87.27c47.48-32.23,57.47-78.57,57.89-128.91.43-61.46.14-122.92.14-184.38V9.86l34.94-4.14Z"/><path d="m110.37,403.14H.86c41.21-21.53,35.22-53.33,35.51-82.99.29-32.23,0-64.31,5.85-98.25,2.71,6.56,6.13,12.98,8.13,19.68,12.69,43.35,24.24,86.98,38.22,129.91,3.71,11.69,14.4,21.1,21.82,31.66Z"/><path d="m226.9,255.53c-.4-.26-.8-.52-1.18-.8.26,1.26.53,2.51.79,3.77,0,0-.02,0-.03-.01-.14-.05-.27-.08-.41-.13.05.78.07,1.53.13,2.18.02.22.03.43.05.65l1.74-4.97c-.37-.22-.73-.45-1.09-.68Z"/><path d="m210.18,302c-2.47,3.73-4.89,7.74-5.28,12.34-.11,1.27-1.93,1.1-1.92-.16.03-3.18.63-6.34,1.82-9.28.24-.6.51-1.18.8-1.75.02-.04.04-.07.06-.11-.84.86-1.81,1.67-2.55,2.54-2.04,2.41-4,5.3-5.11,8.31-.68,1.84-.26,2.77.43,4.42.45,1.06.79,2.17.59,3.32-.19,1.04-1.53,1.16-1.82.1-.49-1.77-1.73-3.19-2.15-4.98-.12-.49-.14-.96-.12-1.44-.04-.02-.09-.04-.12-.06-1.05,3.66-1.66,7.48-1.93,11.21-.03.36-.53.39-.61.03-1.53-7.65.18-15.12,3.89-21.88,3.49-6.36,8.88-11.35,16.42-11.27.84,0,1.64.02,2.44.03l5.94-17.01c-1.3-3.65-2.87-7.19-4.63-10.62-.16-.28-.3-.57-.46-.86l-3.38,7.63c-3.56-10.55-6.27-17.11-8.27-23.96-.64-2.1-1.27-4.19-1.9-6.29-.48-.94-.94-1.88-1.36-2.85.15.47.3.93.43,1.4.35,1.18.64,2.36.89,3.5.24,1.15.45,2.26.59,3.33.15,1.07.26,2.08.32,3.03.07.94.09,1.81.09,2.59,0,.78-.02,1.45-.07,2.01-.03.56-.1,1-.12,1.3-.03.3-.06.46-.06.46,0,0-.09-.14-.25-.39-.15-.26-.39-.64-.66-1.12-.27-.49-.59-1.08-.94-1.75-.34-.67-.72-1.43-1.12-2.26-.39-.83-.81-1.73-1.23-2.68-.41-.96-.86-1.95-1.28-3-.45-1.03-.87-2.12-1.3-3.21-.24-.62-.48-1.24-.72-1.87.01.13.03.27.04.4.04.57.08,1.11.11,1.64.02.53.03,1.05.03,1.54,0,.5,0,.97-.01,1.42-.02.46-.04.89-.07,1.29-.05.81-.12,1.51-.21,2.08-.08.57-.17,1.03-.22,1.34-.06.31-.1.48-.1.48,0,0-.08-.15-.22-.43-.13-.28-.34-.7-.57-1.23-.22-.53-.5-1.17-.81-1.9-.29-.73-.61-1.55-.97-2.44-.33-.89-.69-1.86-1.07-2.88-.35-1.02-.76-2.09-1.12-3.2-.2-.55-.39-1.12-.58-1.69-.19-.57-.39-1.15-.59-1.73-.18-.55-.36-1.11-.55-1.67-.02.5-.06.99-.14,1.46-.09.55-.22,1.07-.37,1.54-.08.24-.15.46-.24.67-.09.22-.17.42-.27.61-.18.38-.35.69-.53.93-.16.25-.32.44-.42.57-.1.13-.17.2-.17.2,0,0-.06-.08-.15-.21-.09-.14-.24-.35-.38-.61-.14-.25-.31-.55-.51-.9-.18-.33-.37-.7-.57-1.1-.18-.4-.4-.82-.58-1.26-.18-.44-.39-.9-.56-1.37-.19-.47-.35-.95-.52-1.44-.15-.49-.33-.98-.46-1.48-.16-.49-.27-1-.41-1.5,0-.04-.02-.07-.03-.11-10.4-2.18-20.63-5.43-29.74-10.9-11.93-7.17-24.01-14.63-30.41-27.88-5.66-11.72-5.43-25.9.91-37.17,2.9-5.15,5.24-9.76,4.27-15.77-.96-5.98-1.3-12.15-1.94-18.18-1.4-13.08-2.8-26.16-4.2-39.25,2.94,11.67,2.88,16.53,9.68,39.04,5.71,1.04,10.25,6.63,10.36,12.57.19,9.9-9.52,15.5-13.08,24.03-7.8,18.71,7.98,34.01,24.66,38.67,3.6,1.01,7.4,1.54,11.06.84,3.66-.7,7.18-2.78,9.06-6.07,2.66-4.66,1.57-10.65-.51-15.63-3.54-8.49-9.34-14.97-16.94-19.79-3.6-2.28-7.8-3.43-8.39-9.32-.09-.88-.06-1.76.02-2.64.62-7.14.14-14.37-1.37-21.38-.47-2.16-1.03-4.3-1.69-6.4-2.58-8.27-6.91-14.69-11.59-21.78-5.55-8.43-12.52-15.83-20.13-22.34-2-2.64-5.85-4.79-8.48-6.75-3.02-2.25-6.11-4.4-9.23-6.48-3.69-2.46-7.5-4.75-11.25-7.12-.91-.51-1.77-.99-2.56-1.43-1.23-.72-2.31-1.35-3.19-1.86-.42-.25-.8-.48-1.13-.69-.11-.04-.23-.09-.34-.13-.71-.27-1.4-.53-2.04-.77-.65-.23-1.27-.45-1.86-.66-.58-.21-1.13-.4-1.63-.58-.51-.18-.98-.32-1.4-.46-1.69-.55-2.66-.86-2.66-.86l.16-.6s.07,0,.2-.02c.13-.01.33-.04.58-.06.5-.03,1.26-.11,2.2-.12.95-.04,2.08-.01,3.38.07.65.03,1.33.1,2.06.15.73.07,1.47.19,2.26.29,5.74.73,12.04,2.81,17.59,4.62,2.32.76,4.61,1.63,6.85,2.6-2.33-1.9-4.92-3.64-7.58-4.08-.67-.11-.83-.86-.62-1.42-.28-.14-.53-.3-.76-.49-.07-.06-.03-.17.03-.21,1.55-1.13,4.16-.52,5.92-.24,2.61.41,5.13,1.15,7.56,2.22,1.84.81,4.01,1.83,5.98,3.12,2.25.88,4.45,1.96,5.82,3.34l-6.9-6.95c-1.3-.69-2.6-1.38-3.86-2.15-.18-.11-.11-.48.12-.44.8.11,1.6.27,2.41.47,2.88-.35,6.37,1.53,8.88,2.54,3.14,1.26,6.25,2.74,9.19,4.48,1.82,1.08,4.06,2.58,6.1,4.38-4.6-5.4-10.19-9.91-16.39-13.23,9.33.42,18.82,4.51,26.32,10.27-.58-1.86-1.17-3.72-1.76-5.58-.68-1.08-1.39-2.14-2.18-3.15.46.18.91.38,1.37.58-2.12-6.74-4.23-13.48-6.37-20.21-2.85-8.84-13.26-21.1-20.82-21.53C76.57-.84,38.64.3.71.3l-.71,5.7c4.99.43,10.12,2.28,14.83,1.28,30.94-6.13,41.21,9.84,48.91,37.36,31.37,112.37,65.17,224.02,98.11,335.82,2.57,8.7,5.56,16.97,8.41,25.52l5.85-1.14,36.78-105.39c-1.05.78-2.07,1.58-2.71,2.54Z"/><path d="m399.09,402.29c51.48-17.68,88.27-51.33,117.64-98.96l-6.7,98.96h-110.94Z"/></svg>